# xmcd
#
# Track frame offsets: 
#        150
#        16177
#        33900
#        49890
#
# Disc length: 899 seconds
#
# Revision: 1
# Processed by: cddbd v1.5PL3 Copyright (c) Steve Scherf et al.
# Submitted via: ExactAudioCopy v0.95a3
#
DISCID=26038104
DTITLE=ZONE - GOOD DAYS
DYEAR=2001
DGENRE=JPop
TTITLE0=GOOD DAYS
TTITLE1=fortune
TTITLE2=GOOD DAYS (Backing Tracks)
TTITLE3=fortune (Backing Tracks)
EXTD=YEAR: 2001
EXTT0=
EXTT1=
EXTT2=
EXTT3=
PLAYORDER=
